# xmcd
#
# Track frame offsets:
#	180
#	29944
#	51242
#	87324
#	115461
#	143179
#	167814
#	193090
#	213788
#	234504
#
# Disc length: 3504 seconds
#
# Revision: 1
# Processed by: cddbd v1.4PL0 Copyright (c) Steve Scherf et al.
# Submitted via: audiograbber 1.80
#
DISCID=940dae0a
DTITLE=Riqui Sabatés - Perdidos en el Blues
DYEAR=1900
DGENRE=
TTITLE0=El Último Cartucho
TTITLE1=Trabajo, Esperanza y Caridad
TTITLE2=Absolutamente Tuyo
TTITLE3=Olivares de Baza
TTITLE4=Hotel Room
TTITLE5=Un Chico Obstinado
TTITLE6=Mimí Bobó
TTITLE7=La Bohème
TTITLE8=Normalízame Esta Noche
TTITLE9=Al Blues
EXTD=
EXTT0=
EXTT1=
EXTT2=
EXTT3=
EXTT4=
EXTT5=
EXTT6=
EXTT7=
EXTT8=
EXTT9=
PLAYORDER=
